<svg width="900" height="1200" viewBox="0 0 900 1200" xmlns="http://www.w3.org/2000/svg" role="img" aria-label="Placeholder graphic">
  <defs>
    <linearGradient id="mintGrad3" x1="0%" y1="20%" x2="100%" y2="80%">
      <stop offset="0%" stop-color="#E5F5EF"/>
      <stop offset="45%" stop-color="#A7D9C8"/>
      <stop offset="100%" stop-color="#7CB8A5"/>
    </linearGradient>
  </defs>
  <rect width="900" height="1200" rx="48" fill="url(#mintGrad3)"/>
  <rect x="110" y="200" width="680" height="260" rx="36" fill="rgba(255,255,255,0.5)"/>
  <rect x="110" y="510" width="680" height="260" rx="36" fill="rgba(255,255,255,0.36)"/>
  <rect x="110" y="820" width="680" height="180" rx="30" fill="rgba(255,255,255,0.3)"/>
  <path d="M180 280c60-40 120-40 180 0s120 40 180 0 120-40 180 0" stroke="#0F172A" stroke-width="10" opacity="0.08" fill="none" stroke-linecap="round"/>
  <path d="M180 600c80-32 160-32 240 0s160 32 240 0" stroke="#0F172A" stroke-width="10" opacity="0.08" fill="none" stroke-linecap="round"/>
  <circle cx="220" cy="880" r="52" fill="#0F172A" opacity="0.08"/>
  <circle cx="330" cy="880" r="44" fill="#0F172A" opacity="0.07"/>
  <circle cx="450" cy="880" r="36" fill="#0F172A" opacity="0.06"/>
  <circle cx="720" cy="880" r="68" fill="#0F172A" opacity="0.08"/>
  <text x="160" y="240" font-family="Inter, system-ui" font-size="36" fill="#0F172A" opacity="0.4">Stories surfaced</text>
  <text x="160" y="560" font-family="Inter, system-ui" font-size="34" fill="#0F172A" opacity="0.36">Patterns detected</text>
  <text x="160" y="900" font-family="Inter, system-ui" font-size="32" fill="#0F172A" opacity="0.32">Support amplified</text>
</svg>

